<svg xmlns="http://www.w3.org/2000/svg" width="32" height="48" viewBox="0 0 8 12" shape-rendering="crispEdges"><title></title><defs></defs><style>@keyframes k0{0%{visibility:hidden}83.333%{visibility:visible}86.111%{visibility:hidden}88.889%{visibility:visible}90.278%{visibility:hidden}100%{visibility:hidden}}#i0{animation:k0 3s step-end infinite}@media (prefers-reduced-motion:reduce){*{animation-delay:-0s!important;animation-play-state:paused!important}}</style><g><path fill="#b05b41" d="M5 0h3v1h-3zm-1 1h1v1h-1zm3 0h1v1h-1zm-4 1h1v1h-1zm3 0h1v1h-1zm-4 1h1v1h-1zm3 0h1v1h-1zm-4 1h1v2h-1zm4 0h3v1h-3zm2 1h1v1h-1zm-6 1h2v1h-2zm5 0h1v2h-1zm-3 1h1v1h-1zm-1 1h1v2h-1zm3 0h1v1h-1zm-1 1h1v1h-1zm-3 1h1v1h-1zm2 0h1v1h-1zm-2 1h2v1h-2z"/><path fill="#ffc85a" d="M5 1h2v1h-2zm-1 1h2v1h-2zm-1 1h2v1h-2zm-1 1h3v1h-3zm0 1h5v1h-5zm1 1h3v1h-3zm1 1h2v1h-2zm-1 1h2v1h-2zm0 1h1v1h-1zm-1 1h1v1h-1z"/><g id="i0"><path fill="#fff4a3" d="M5 1h2v1h-2zm-1 1h2v1h-2zm-1 1h2v1h-2zm-1 1h3v1h-3zm0 1h5v1h-5zm1 1h3v1h-3zm1 1h2v1h-2zm-1 1h2v1h-2zm0 1h1v1h-1zm-1 1h1v1h-1z"/></g></g></svg>